<svg width="7" height="9" viewBox="0 0 7 9" fill="none" xmlns="http://www.w3.org/2000/svg">
<path fill-rule="evenodd" clip-rule="evenodd" d="M3.15574 0C3.28737 0 3.41361 0.0522907 3.50669 0.145369C3.59977 0.238447 3.65206 0.364688 3.65206 0.49632V7.23965L5.45205 5.43967C5.49749 5.3909 5.55228 5.35179 5.61316 5.32467C5.67404 5.29754 5.73977 5.28295 5.80641 5.28178C5.87305 5.2806 5.93924 5.29286 6.00104 5.31782C6.06284 5.34278 6.11898 5.37994 6.16611 5.42707C6.21324 5.4742 6.2504 5.53034 6.27536 5.59214C6.30032 5.65394 6.31258 5.72013 6.3114 5.78678C6.31023 5.85342 6.29564 5.91914 6.26852 5.98002C6.24139 6.0409 6.20228 6.0957 6.15351 6.14113L3.50647 8.78817C3.41341 8.88112 3.28727 8.93332 3.15574 8.93332C3.02422 8.93332 2.89807 8.88112 2.80501 8.78817L0.157968 6.14113C0.109205 6.0957 0.0700933 6.0409 0.0429664 5.98002C0.0158396 5.91914 0.00125305 5.85342 7.72414e-05 5.78678C-0.00109856 5.72013 0.0111603 5.65394 0.0361226 5.59214C0.0610848 5.53034 0.0982391 5.4742 0.145369 5.42707C0.192499 5.37994 0.248638 5.34278 0.310439 5.31782C0.372239 5.29286 0.438435 5.2806 0.505076 5.28178C0.571717 5.28295 0.637438 5.29754 0.69832 5.32467C0.759202 5.35179 0.813996 5.3909 0.859433 5.43967L2.65942 7.23965V0.49632C2.65942 0.364688 2.71171 0.238447 2.80479 0.145369C2.89787 0.0522907 3.02411 0 3.15574 0Z" fill="#FF3F3F"/>
</svg>
