<svg width="135" height="42" viewBox="0 0 135 42" fill="none" xmlns="http://www.w3.org/2000/svg">
<path d="M9.7142 32.9406C4.3497 32.9406 0 28.6038 0 23.2552V18.0644C0 15.2359 0.68658 13.0243 2.05978 11.4295C3.43297 9.83846 5.30038 9.04102 7.65821 9.04102C9.09175 9.04102 10.2575 9.30058 11.1515 9.82342C12.0456 10.3462 12.7963 10.9104 13.3924 11.5198C13.9884 12.1291 14.4902 12.6971 14.8938 13.2161C15.2975 13.739 15.7087 13.9984 16.1275 13.9984C16.5462 13.9984 16.9574 13.739 17.3611 13.2161C17.7647 12.6971 18.2665 12.1291 18.8625 11.5198C19.4586 10.9104 20.2056 10.3425 21.1035 9.82342C22.0012 9.30436 23.1632 9.04102 24.5967 9.04102C26.9582 9.04102 28.822 9.83092 30.195 11.4069C31.5683 12.9867 32.2549 15.2021 32.2549 18.0644V23.2552C32.2549 28.6038 27.9053 32.9406 22.5408 32.9406H9.71043H9.7142ZM26.747 18.0644C26.747 16.921 26.5131 16.0672 26.0453 15.4954C25.6341 14.9914 24.9816 14.762 24.3289 14.8109C23.6761 14.8598 23.0802 15.1344 22.5558 15.6309C21.9749 16.1838 21.3825 16.7931 20.7866 17.4626C20.1904 18.1321 19.5265 18.7528 18.7946 19.317C18.0628 19.8812 17.1762 20.167 16.1275 20.167C15.0787 20.167 14.1922 19.885 13.4603 19.317C12.7284 18.7528 12.0645 18.1321 11.4684 17.4626C10.8724 16.7931 10.2801 16.1838 9.69909 15.6309C9.11813 15.0817 8.46552 14.8034 7.74873 14.8034C7.03195 14.8034 6.5151 15.093 6.11521 15.676C5.71156 16.2552 5.51163 17.0526 5.51163 18.0644V21.412C5.51163 24.9138 8.35607 27.7498 11.8683 27.7498H20.3904C23.9026 27.7498 26.747 24.9138 26.747 21.412V18.0644Z" fill="white"/>
<path d="M42.5781 10.4407C42.5781 9.67841 42.8184 9.10121 43.2991 8.70917C43.7797 8.31711 44.4569 8.12109 45.3307 8.12109C45.7676 8.12109 46.2045 8.16465 46.6414 8.25177C47.0783 8.33889 47.4825 8.45869 47.8538 8.61115V16.8769C48.4 16.3106 49.088 15.875 49.9181 15.5701C50.7483 15.2434 51.6548 15.08 52.6379 15.08C54.1671 15.08 55.5323 15.4612 56.7339 16.2235C57.9573 16.9858 58.9294 18.0313 59.6503 19.3599C60.371 20.6667 60.7315 22.1695 60.7315 23.8685C60.7315 25.5673 60.3494 27.0811 59.5847 28.4097C58.8419 29.7383 57.7824 30.7837 56.4063 31.5461C55.0519 32.2867 53.4353 32.6569 51.5565 32.6569C49.7215 32.6569 48.1268 32.2867 46.7724 31.5461C45.4398 30.8055 44.4021 29.7383 43.6595 28.3443C42.9386 26.9285 42.5781 25.2407 42.5781 23.2803V10.4407ZM54.2764 20.9607C53.5773 20.2201 52.6706 19.8499 51.5565 19.8499C50.4424 19.8499 49.5359 20.2201 48.8369 20.9607C48.1378 21.6795 47.7882 22.6379 47.7882 23.8357C47.7882 25.0337 48.1378 26.0029 48.8369 26.7435C49.5359 27.4623 50.4424 27.8217 51.5565 27.8217C52.6706 27.8217 53.5773 27.4623 54.2764 26.7435C54.9753 26.0029 55.3249 25.0337 55.3249 23.8357C55.3249 22.6379 54.9753 21.6795 54.2764 20.9607ZM78.4865 32.1015C78.2462 32.1669 77.8312 32.2321 77.2412 32.2975C76.6733 32.3629 76.007 32.4173 75.2425 32.4609C74.4997 32.5263 73.7242 32.5697 72.9158 32.5915C72.1295 32.6351 71.3977 32.6569 70.7205 32.6569C67.9242 32.6569 65.8053 32.2103 64.3635 31.3173C62.9216 30.4243 62.2009 28.9869 62.2009 27.0049C62.2009 25.1971 62.8343 23.8467 64.1013 22.9537C65.3683 22.0389 67.4217 21.5815 70.2618 21.5815C71.5943 21.5815 72.5664 21.6251 73.178 21.7121C73.178 20.0787 71.8346 19.2619 69.1476 19.2619C68.252 19.2619 67.3999 19.349 66.5917 19.5232C65.8053 19.6975 65.1827 19.9371 64.7239 20.2419C64.418 19.9806 64.145 19.6321 63.9047 19.1965C63.6644 18.7391 63.5442 18.2817 63.5442 17.8244C63.5442 16.9749 64.0249 16.3106 64.9861 15.8314C65.9472 15.3305 67.4109 15.08 69.3769 15.08C72.3698 15.08 74.6307 15.679 76.16 16.8769C77.711 18.0748 78.4865 19.8608 78.4865 22.2349V32.1015ZM67.4436 27.1029C67.4436 28.3225 68.525 28.9325 70.6876 28.9325C71.2338 28.9325 71.7472 28.9215 72.2278 28.8997C72.7303 28.8561 73.0578 28.8127 73.2109 28.7691V25.2733C72.8175 25.2297 72.3806 25.1971 71.9 25.1753C71.4196 25.1317 70.9935 25.1099 70.6222 25.1099C69.4644 25.1099 68.6452 25.2841 68.1645 25.6327C67.6839 25.9811 67.4436 26.4713 67.4436 27.1029ZM98.1482 29.8799C98.1482 32.9073 97.3292 35.1943 95.6907 36.7407C94.0522 38.2871 91.824 39.0603 89.0061 39.0603C88.154 39.0603 87.2583 38.9951 86.3189 38.8643C85.3797 38.7555 84.5276 38.6029 83.7632 38.4069C82.9985 38.2109 82.4414 38.0259 82.092 37.8515L83.37 33.9963C83.632 34.1271 84.0362 34.2577 84.5824 34.3885C85.1284 34.5409 85.7292 34.6607 86.3845 34.7479C87.0399 34.8349 87.6625 34.8785 88.2523 34.8785C89.6723 34.8785 90.8191 34.5735 91.6931 33.9637C92.5668 33.3757 93.0037 32.4281 93.0037 31.1213V30.2393C92.6322 30.7185 92.0644 31.1105 91.2997 31.4153C90.5571 31.7203 89.6396 31.8727 88.5473 31.8727C87.1929 31.8727 85.9803 31.6223 84.91 31.1213C83.8396 30.5987 82.9877 29.8689 82.3542 28.9325C81.7424 27.9741 81.4367 26.8415 81.4367 25.5347V17.857C81.4367 17.0947 81.677 16.5175 82.1574 16.1255C82.638 15.7334 83.3152 15.5374 84.189 15.5374C84.6259 15.5374 85.063 15.581 85.4999 15.6681C85.9587 15.7552 86.3627 15.875 86.7123 16.0275V24.4565C86.7123 25.4585 86.9745 26.1989 87.4986 26.6781C88.0448 27.1573 88.7985 27.3969 89.7597 27.3969C90.852 27.3969 91.6383 27.1029 92.1189 26.5147C92.6214 25.9267 92.8725 25.0663 92.8725 23.9337V17.857C92.8725 17.0947 93.1129 16.5175 93.5935 16.1255C94.0741 15.7334 94.7513 15.5374 95.6251 15.5374C96.062 15.5374 96.4989 15.581 96.9358 15.6681C97.3945 15.7552 97.7987 15.875 98.1482 16.0275V29.8799ZM100.418 20.7647C100.418 18.9134 101.106 17.5085 102.482 16.5502C103.858 15.5701 105.901 15.08 108.61 15.08C110.751 15.08 112.465 15.3631 113.754 15.9294C115.043 16.474 115.688 17.1927 115.688 18.0857C115.688 18.4996 115.535 18.9352 115.229 19.3926C114.945 19.8499 114.584 20.1875 114.147 20.4053C113.907 20.1439 113.459 19.9044 112.804 19.6866C112.149 19.447 111.417 19.2619 110.609 19.1312C109.8 18.9787 109.036 18.9025 108.315 18.9025C106.567 18.9025 105.693 19.3163 105.693 20.1439C105.693 20.4925 105.857 20.7539 106.185 20.9281C106.513 21.1023 107.059 21.2439 107.823 21.3527L110.772 21.7449C114.595 22.2675 116.507 23.9665 116.507 26.8415C116.507 28.6493 115.808 30.0759 114.41 31.1213C113.011 32.1451 111.078 32.6569 108.61 32.6569C107.496 32.6569 106.371 32.5589 105.235 32.3629C104.099 32.1669 103.061 31.9055 102.122 31.5787C101.182 31.2521 100.45 30.8927 99.9262 30.5007L101.794 27.1029C102.427 27.5603 103.345 27.9413 104.547 28.2463C105.748 28.5513 106.982 28.7037 108.249 28.7037C110.062 28.7037 110.969 28.3225 110.969 27.5603C110.969 27.2117 110.783 26.9395 110.412 26.7435C110.062 26.5475 109.462 26.3949 108.61 26.2861L105.661 25.8941C102.165 25.4367 100.418 23.7269 100.418 20.7647ZM126.396 32.6569C124.649 32.6569 123.109 32.2867 121.776 31.5461C120.465 30.8055 119.439 29.7819 118.696 28.4751C117.953 27.1465 117.582 25.6109 117.582 23.8685C117.582 22.1477 117.964 20.6341 118.729 19.3272C119.515 17.9986 120.585 16.964 121.94 16.2235C123.294 15.4612 124.834 15.08 126.56 15.08C128.002 15.08 129.291 15.3305 130.427 15.8314C131.563 16.3324 132.458 17.0185 133.114 17.8897C133.769 18.7609 134.097 19.7519 134.097 20.8627C134.097 22.6705 133.376 23.9883 131.934 24.8159C130.514 25.6435 128.209 26.0573 125.02 26.0573C124.605 26.0573 124.256 26.0573 123.971 26.0573C123.687 26.0355 123.425 26.0139 123.185 25.9921C123.316 26.6673 123.775 27.2117 124.561 27.6255C125.348 28.0395 126.342 28.2463 127.543 28.2463C127.98 28.2463 128.482 28.2027 129.051 28.1157C129.618 28.0067 130.154 27.8761 130.656 27.7235C131.18 27.5493 131.563 27.3859 131.803 27.2335L133.638 30.8927C133.136 31.2193 132.469 31.5243 131.639 31.8075C130.831 32.0689 129.968 32.2757 129.051 32.4281C128.133 32.5807 127.248 32.6569 126.396 32.6569ZM126.527 19.1312C125.522 19.1312 124.671 19.4688 123.971 20.1439C123.294 20.7973 122.956 21.6359 122.956 22.6597C123.13 22.6813 123.305 22.6923 123.48 22.6923C123.677 22.6923 123.851 22.6923 124.004 22.6923C125.795 22.6923 127.073 22.5399 127.838 22.2349C128.624 21.9081 129.018 21.4399 129.018 20.8301C129.018 20.3291 128.788 19.9262 128.33 19.6213C127.871 19.2945 127.27 19.1312 126.527 19.1312Z" fill="white"/>
</svg>
