<svg width="141" height="34" viewBox="0 0 141 34" fill="none" xmlns="http://www.w3.org/2000/svg">
<path d="M27.4395 0H9.09948C4.07398 0 0 4.05231 0 9.05108V22.6043C0 27.6031 4.07398 31.6554 9.09948 31.6554H27.4395C32.465 31.6554 36.5389 27.6031 36.5389 22.6043V9.05108C36.5389 4.05231 32.465 0 27.4395 0Z" fill="url(#paint0_linear_30_2632)"/>
<mask id="mask0_30_2632" style="mask-type:alpha" maskUnits="userSpaceOnUse" x="5" y="6" width="26" height="20">
<path d="M13.4178 25.0254C11.4317 25.0243 9.52725 24.2387 8.12325 22.8414C6.71924 21.444 5.93054 19.5493 5.93054 17.5738V13.5802C5.92959 11.4051 6.45941 9.70417 7.52 8.47733C8.57963 7.25239 10.0181 6.63944 11.8355 6.6385C12.9397 6.6385 13.837 6.83872 14.5273 7.23917C15.2185 7.63961 15.7944 8.07547 16.2549 8.54675C16.7163 9.01708 17.1018 9.45247 17.4114 9.85292C17.7204 10.2538 18.0409 10.455 18.3599 10.455C18.6789 10.455 19.0008 10.2538 19.3085 9.85292C19.618 9.45247 20.004 9.01708 20.4664 8.54675C20.9269 8.07642 21.5023 7.64056 22.1925 7.23917C22.8838 6.83872 23.781 6.6385 24.8844 6.6385C26.7031 6.6385 28.1459 7.24767 29.1998 8.46033C30.2604 9.67395 30.7902 11.3806 30.7893 13.5802V17.5752C30.7889 19.5507 29.9998 21.4453 28.5956 22.8424C27.1913 24.2394 25.2867 25.0247 23.3006 25.0254H13.4107H13.4178ZM26.545 13.5844C26.545 12.7061 26.3656 12.0469 26.0067 11.6068C25.6905 11.2186 25.1863 11.0429 24.6821 11.0812C24.167 11.1243 23.6838 11.3471 23.3177 11.7102C22.8686 12.1352 22.4128 12.6041 21.9504 13.1169C21.4918 13.6335 20.9805 14.1086 20.4165 14.5421C19.8525 14.9765 19.1679 15.1942 18.3628 15.1952C17.5557 15.1952 16.8711 14.9775 16.309 14.5421C15.7542 14.1151 15.2402 13.638 14.7737 13.1169C14.3403 12.6274 13.8846 12.158 13.4078 11.7102C12.9597 11.2852 12.4593 11.0727 11.9067 11.0727C11.3541 11.0727 10.9581 11.2993 10.6462 11.7442C10.3357 12.1918 10.1805 12.8053 10.1805 13.5844V16.1599C10.1803 16.8 10.3069 17.4339 10.553 18.0253C10.7992 18.6167 11.16 19.1541 11.615 19.6068C12.0699 20.0595 12.6101 20.4186 13.2046 20.6636C13.7991 20.9086 14.4364 21.0347 15.0799 21.0347H21.6485C24.3545 21.0347 26.5479 18.853 26.5479 16.1613V13.583L26.545 13.5844Z" fill="white"/>
</mask>
<g mask="url(#mask0_30_2632)">
<path d="M54.4103 25.0665L-0.693613 48.6044L-18.8954 6.44725L36.2085 -17.0907L54.4103 25.0665Z" fill="white"/>
</g>
<path d="M44.2626 4.23583C44.2626 3.4425 44.5128 2.84231 45.0132 2.43525C45.5136 2.02725 46.2195 1.82325 47.131 1.82325C47.5868 1.82325 48.0416 1.86858 48.4955 1.95925C48.9512 2.04992 49.3723 2.17458 49.7588 2.33325V10.9296C50.3285 10.3403 51.0453 9.88692 51.9094 9.56958C52.7734 9.22958 53.7182 9.05958 54.7436 9.05958C56.3359 9.05958 57.7582 9.45625 59.0106 10.2496C60.2839 11.0429 61.2965 12.1304 62.0485 13.5122C62.7986 14.8703 63.1737 16.4333 63.1737 18.2013C63.1737 19.9674 62.7759 21.5414 61.9802 22.9231C61.2101 24.3008 60.0615 25.432 58.6688 26.1842C57.2579 26.9549 55.5739 27.3403 53.617 27.3403C51.7038 27.3403 50.0422 26.9549 48.6322 26.1842C47.244 25.4145 46.163 24.3048 45.3892 22.8551C44.6391 21.3818 44.264 19.6265 44.264 17.5893L44.2626 4.23583ZM56.4498 15.1768C55.7216 14.4061 54.7768 14.0208 53.6156 14.0208C52.4544 14.0208 51.5101 14.4061 50.7828 15.1768C50.0545 15.9229 49.6904 16.9193 49.6904 18.1659C49.6904 19.4126 50.0545 20.4208 50.7828 21.1905C51.511 21.9366 52.4558 22.3101 53.617 22.3111C54.7773 22.3111 55.7216 21.9376 56.4498 21.1905C57.1781 20.4198 57.5422 19.4116 57.5422 18.1659C57.5422 16.9193 57.1781 15.9229 56.4498 15.1768ZM81.6718 26.7623C81.4211 26.8303 80.9886 26.8983 80.3743 26.9663C79.7818 27.0343 79.0877 27.0909 78.292 27.1363C77.5191 27.2043 76.7111 27.2496 75.868 27.2722C75.0495 27.3176 74.2871 27.3403 73.5806 27.3403C70.6685 27.3403 68.461 26.8761 66.9579 25.9477C65.4568 25.0183 64.7057 23.5233 64.7048 21.4625C64.7048 19.5821 65.3647 18.1777 66.6845 17.2493C68.0052 16.2973 70.1449 15.8213 73.1035 15.8213C74.4907 15.8213 75.5034 15.8667 76.1414 15.9573C76.1414 14.2592 74.7419 13.4102 71.9428 13.4102C71.0094 13.4102 70.1216 13.5004 69.2794 13.6808C68.461 13.8621 67.8125 14.1114 67.3339 14.4288C66.9852 14.1211 66.6956 13.7529 66.4794 13.3422C66.2392 12.9037 66.1106 12.4134 66.1048 11.9142C66.1048 11.0321 66.6056 10.3412 67.6074 9.84158C68.6081 9.32214 70.133 9.06194 72.182 9.061C75.3002 9.061 77.6554 9.68386 79.2477 10.9296C80.8637 12.1763 81.6718 14.0335 81.6718 16.5013V26.7623ZM70.1667 21.5631C70.1667 22.8324 71.2933 23.4671 73.5465 23.4671C74.1161 23.4671 74.6512 23.4558 75.1516 23.4331C75.6738 23.3878 76.0151 23.3424 76.1756 23.2971V19.6619C75.7215 19.6134 75.266 19.5794 74.8098 19.5599C74.367 19.5185 73.9227 19.4958 73.4781 19.4919C72.2722 19.4919 71.4191 19.6728 70.9187 20.0345C70.4174 20.3972 70.1667 20.9072 70.1667 21.5645M102.155 24.4517C102.155 27.6004 101.302 29.979 99.5944 31.5874C97.8882 33.1958 95.5667 34 92.6299 34C91.7431 34 90.8102 33.932 89.8312 33.796C88.8533 33.6827 87.9655 33.524 87.1679 33.32C86.3722 33.116 85.7921 32.9233 85.4275 32.742L86.7591 28.7328C87.0326 28.8688 87.4537 29.0048 88.0225 29.1408C88.5922 29.2995 89.2179 29.4242 89.8996 29.5148C90.5832 29.6055 91.2317 29.6508 91.8451 29.6508C93.3254 29.6508 94.5203 29.3335 95.4299 28.6988C96.3405 28.0878 96.7958 27.1027 96.7958 25.7437V24.8257C96.4093 25.3243 95.8173 25.7323 95.0198 26.0497C94.2459 26.3661 93.2903 26.5242 92.1528 26.5242C90.7418 26.5242 89.479 26.2641 88.3643 25.7437C87.2886 25.2341 86.3692 24.4482 85.7009 23.4671C85.0629 22.4707 84.7443 21.2925 84.7453 19.9325V11.9496C84.7453 11.1563 84.9955 10.5565 85.4958 10.1504C85.9962 9.74147 86.7017 9.537 87.6123 9.537C88.068 9.537 88.5233 9.58233 88.9781 9.673C89.4557 9.76367 89.8768 9.88833 90.2414 10.047V18.8133C90.2414 19.8569 90.5144 20.6267 91.0604 21.1225C91.6291 21.6221 92.4143 21.8714 93.4161 21.8705C94.5535 21.8705 95.3725 21.565 95.8729 20.9539C96.397 20.3419 96.6591 19.4471 96.6591 18.2693V11.951C96.6591 11.1577 96.9092 10.557 97.4096 10.149C97.911 9.741 98.6164 9.537 99.5261 9.537C99.9818 9.537 100.437 9.58233 100.892 9.673C101.369 9.76367 101.791 9.88833 102.155 10.047V24.4517ZM104.519 14.9728C104.519 13.047 105.236 11.586 106.67 10.5896C108.103 9.56958 110.231 9.05958 113.054 9.05958C115.284 9.05958 117.07 9.35425 118.413 9.94358C119.756 10.5103 120.427 11.2578 120.427 12.1862C120.427 12.6168 120.267 13.0702 119.948 13.5462C119.68 13.9953 119.29 14.3601 118.823 14.5988C118.572 14.3268 118.106 14.0774 117.423 13.8508C116.681 13.5866 115.915 13.3935 115.136 13.2742C114.348 13.1206 113.548 13.0409 112.746 13.0362C110.926 13.0362 110.016 13.4664 110.016 14.3268C110.016 14.6894 110.187 14.9614 110.528 15.1428C110.868 15.3241 111.437 15.4714 112.235 15.5848L115.307 15.9913C119.289 16.5353 121.28 18.3024 121.28 21.2925C121.28 23.1719 120.552 24.6557 119.095 25.7437C117.639 26.8081 115.625 27.3403 113.054 27.3403C111.893 27.3403 110.721 27.2383 109.537 27.0343C108.353 26.8303 107.272 26.5587 106.294 26.2197C105.316 25.8806 104.554 25.5066 104.007 25.0977L105.952 21.5645C106.613 22.0396 107.569 22.4362 108.821 22.7545C110.072 23.0709 111.358 23.2291 112.678 23.2291C114.567 23.2291 115.512 22.8324 115.512 22.0391C115.512 21.6783 115.318 21.395 114.931 21.1891C114.566 20.986 113.94 20.8278 113.054 20.7145L109.981 20.3065C106.34 19.8324 104.519 18.0545 104.519 14.9728ZM131.583 27.3403C129.763 27.3403 128.158 26.9549 126.769 26.1842C125.424 25.4344 124.314 24.3293 123.562 22.9911C122.787 21.6094 122.399 20.0123 122.399 18.1999C122.399 16.4102 122.798 14.8363 123.596 13.4782C124.392 12.1178 125.549 11.001 126.94 10.2496C128.352 9.45625 129.956 9.05958 131.754 9.05958C133.256 9.05958 134.598 9.32025 135.782 9.84158C136.965 10.3629 137.898 11.0764 138.582 11.9822C139.265 12.8879 139.607 13.9188 139.606 15.0748C139.606 16.9542 138.855 18.3246 137.353 19.1859C135.873 20.0454 133.472 20.4756 130.149 20.4765H129.056L128.237 20.4085C128.374 21.1112 128.852 21.6778 129.672 22.1085C130.491 22.5392 131.526 22.754 132.778 22.7531C133.234 22.7531 133.757 22.7078 134.347 22.6171C134.94 22.5038 135.498 22.3678 136.021 22.2091C136.567 22.0296 136.965 21.8596 137.216 21.6991L139.127 25.5057C138.604 25.8457 137.91 26.1625 137.045 26.4562C136.163 26.7384 135.262 26.9543 134.347 27.1023C133.392 27.2609 132.47 27.3403 131.583 27.3403ZM131.721 13.2728C130.675 13.2728 129.787 13.6241 129.058 14.3268C128.352 15.0068 128 15.8789 128 16.9433C128.182 16.966 128.364 16.9773 128.546 16.9773H129.092C130.958 16.9773 132.289 16.8187 133.087 16.5013C133.906 16.1613 134.316 15.6745 134.316 15.0408C134.316 14.5194 134.077 14.1001 133.598 13.7828C133.121 13.4428 132.495 13.2728 131.721 13.2728Z" fill="#0166F4"/>
<defs>
<linearGradient id="paint0_linear_30_2632" x1="3.66742" y1="-14.2644" x2="26.7984" y2="28.3011" gradientUnits="userSpaceOnUse">
<stop stop-color="#00DBEE"/>
<stop offset="1" stop-color="#1655F2"/>
</linearGradient>
</defs>
</svg>
