<svg width="124" height="31" viewBox="0 0 124 31" fill="none" xmlns="http://www.w3.org/2000/svg">
<rect width="32.2417" height="28.0815" rx="8.0298" fill="#DAE0EA"/>
<mask id="mask0_1_2774" style="mask-type:alpha" maskUnits="userSpaceOnUse" x="5" y="5" width="23" height="18">
<path d="M11.8277 22.2002C8.17927 22.2002 5.2207 19.2404 5.2207 15.5904V12.0477C5.2207 10.1184 5.68672 8.6093 6.62181 7.52043C7.5569 6.43462 8.82617 5.88867 10.4296 5.88867C11.4046 5.88867 12.1956 6.06657 12.8057 6.42237C13.4158 6.77817 13.9216 7.16465 14.3294 7.5818C14.7372 7.99894 15.0775 8.38538 15.3503 8.74118C15.6232 9.09698 15.9053 9.27488 16.1873 9.27488C16.4694 9.27488 16.7514 9.09698 17.0243 8.74118C17.2972 8.38538 17.6375 7.99894 18.0452 7.5818C18.453 7.16465 18.9589 6.77817 19.569 6.42237C20.1791 6.06657 20.9701 5.88867 21.945 5.88867C23.5485 5.88867 24.8208 6.42851 25.7528 7.50511C26.6879 8.58172 27.1539 10.0969 27.1539 12.0477V15.5904C27.1539 19.2404 24.1954 22.2002 20.547 22.2002H11.8215H11.8277ZM23.4105 12.0508C23.4105 11.2717 23.2511 10.6858 22.9353 10.2963C22.6563 9.95277 22.2118 9.79633 21.7672 9.83007C21.3227 9.86381 20.918 10.0509 20.5623 10.3883C20.1668 10.7656 19.7652 11.1797 19.3574 11.6367C18.9527 12.0937 18.499 12.517 18.0023 12.9004C17.5056 13.2869 16.9017 13.4801 16.1904 13.4801C15.4791 13.4801 14.8751 13.2869 14.3785 12.9004C13.8818 12.5139 13.428 12.0937 13.0233 11.6367C12.6187 11.1797 12.217 10.7625 11.8185 10.3883C11.423 10.011 10.9815 9.82393 10.494 9.82393C10.0065 9.82393 9.65702 10.0233 9.38109 10.419C9.10823 10.8147 8.97027 11.3606 8.97027 12.0508V14.3358C8.97027 16.7252 10.9048 18.6607 13.2931 18.6607H19.0907C21.479 18.6607 23.4136 16.7252 23.4136 14.3358V12.0508H23.4105Z" fill="white"/>
</mask>
<g mask="url(#mask0_1_2774)">
<rect x="48.0078" y="22.2383" width="52.9168" height="40.7005" transform="rotate(156.759 48.0078 22.2383)" fill="white"/>
</g>
<path d="M39.0566 3.75721C39.0566 3.05392 39.2775 2.52142 39.7193 2.15973C40.1611 1.79803 40.7836 1.61719 41.5869 1.61719C41.9885 1.61719 42.3902 1.65738 42.7918 1.73775C43.1934 1.81813 43.5649 1.92865 43.9063 2.06931V9.69503C44.4083 9.17258 45.0409 8.7707 45.804 8.48938C46.5671 8.18797 47.4005 8.03726 48.3041 8.03726C49.7098 8.03726 50.9649 8.38891 52.0694 9.09221C53.1939 9.7955 54.0876 10.76 54.7503 11.9858C55.4129 13.1914 55.7443 14.5779 55.7443 16.1452C55.7443 17.7126 55.3929 19.1091 54.69 20.3349C54.0072 21.5606 53.0333 22.5251 51.7682 23.2284C50.5231 23.9116 49.0371 24.2532 47.3101 24.2532C45.6233 24.2532 44.1573 23.9116 42.9123 23.2284C41.6873 22.5452 40.7334 21.5606 40.0507 20.2746C39.388 18.9685 39.0566 17.4112 39.0566 15.6027V3.75721ZM49.8102 13.4627C49.1676 12.7795 48.3342 12.4379 47.3101 12.4379C46.2859 12.4379 45.4526 12.7795 44.81 13.4627C44.1674 14.1258 43.8461 15.0099 43.8461 16.1151C43.8461 17.2203 44.1674 18.1145 44.81 18.7977C45.4526 19.4608 46.2859 19.7923 47.3101 19.7923C48.3342 19.7923 49.1676 19.4608 49.8102 18.7977C50.4528 18.1145 50.7741 17.2203 50.7741 16.1151C50.7741 15.0099 50.4528 14.1258 49.8102 13.4627Z" fill="#DAE0EA"/>
<path d="M72.0655 23.7408C71.8446 23.8011 71.4631 23.8614 70.9209 23.9217C70.3988 23.982 69.7863 24.0322 69.0834 24.0724C68.4007 24.1327 67.6878 24.1729 66.9448 24.193C66.2218 24.2331 65.5491 24.2532 64.9266 24.2532C62.3562 24.2532 60.4083 23.8413 59.0829 23.0174C57.7575 22.1936 57.0948 20.8674 57.0948 19.0388C57.0948 17.371 57.6772 16.1252 58.8419 15.3013C60.0066 14.4573 61.8943 14.0354 64.5049 14.0354C65.7298 14.0354 66.6235 14.0756 67.1857 14.1559C67.1857 12.6489 65.9507 11.8953 63.4807 11.8953C62.6574 11.8953 61.8742 11.9757 61.1312 12.1365C60.4083 12.2972 59.8359 12.5183 59.4142 12.7996C59.1331 12.5584 58.8821 12.2369 58.6612 11.8351C58.4403 11.4131 58.3298 10.9911 58.3298 10.5691C58.3298 9.78545 58.7716 9.17258 59.6552 8.73051C60.5388 8.26835 61.8842 8.03726 63.6916 8.03726C66.4427 8.03726 68.5211 8.58985 69.9268 9.69503C71.3526 10.8002 72.0655 12.4479 72.0655 14.6382V23.7408ZM61.9144 19.1292C61.9144 20.2545 62.9084 20.8171 64.8965 20.8171C65.3985 20.8171 65.8704 20.8071 66.3122 20.787C66.7741 20.7468 67.0753 20.7066 67.2159 20.6664V17.4413C66.8544 17.4011 66.4528 17.371 66.011 17.3509C65.5692 17.3107 65.1776 17.2906 64.8362 17.2906C63.7719 17.2906 63.0188 17.4514 62.5771 17.7729C62.1353 18.0944 61.9144 18.5465 61.9144 19.1292Z" fill="#DAE0EA"/>
<path d="M90.1397 21.6912C90.1397 24.4843 89.3867 26.5942 87.8805 28.0209C86.3744 29.4476 84.3261 30.1609 81.7356 30.1609C80.9525 30.1609 80.1291 30.1006 79.2656 29.9801C78.4021 29.8796 77.619 29.7389 76.9161 29.5581C76.2133 29.3772 75.7012 29.2064 75.3799 29.0457L76.5546 25.489C76.7956 25.6096 77.1671 25.7302 77.6692 25.8507C78.1712 25.9914 78.7234 26.1019 79.3259 26.1823C79.9283 26.2626 80.5006 26.3028 81.0428 26.3028C82.3481 26.3028 83.4024 26.0215 84.2057 25.4589C85.0089 24.9163 85.4105 24.0422 85.4105 22.8366V22.0228C85.0692 22.4649 84.547 22.8265 83.8442 23.1079C83.1614 23.3892 82.318 23.5298 81.3139 23.5298C80.0689 23.5298 78.9544 23.2988 77.9704 22.8366C76.9864 22.3543 76.2032 21.6812 75.6209 20.8171C75.0586 19.933 74.7774 18.8881 74.7774 17.6824V10.5993C74.7774 9.89597 74.9983 9.36348 75.4401 9.00178C75.8819 8.64009 76.5044 8.45924 77.3077 8.45924C77.7093 8.45924 78.111 8.49943 78.5126 8.57981C78.9343 8.66018 79.3058 8.7707 79.6271 8.91136V16.6878C79.6271 17.6121 79.8681 18.2953 80.35 18.7374C80.8521 19.1795 81.5449 19.4005 82.4285 19.4005C83.4325 19.4005 84.1554 19.1292 84.5972 18.5867C85.0591 18.0441 85.2901 17.2504 85.2901 16.2055V10.5993C85.2901 9.89597 85.5109 9.36348 85.9527 9.00178C86.3945 8.64009 87.0171 8.45924 87.8203 8.45924C88.2219 8.45924 88.6236 8.49943 89.0252 8.57981C89.4469 8.66018 89.8184 8.7707 90.1397 8.91136V21.6912Z" fill="#DAE0EA"/>
<path d="M92.2259 13.2818C92.2259 11.5738 92.8585 10.2778 94.1236 9.39362C95.3887 8.48938 97.2663 8.03726 99.7564 8.03726C101.724 8.03726 103.301 8.29849 104.486 8.82094C105.67 9.32329 106.263 9.9864 106.263 10.8103C106.263 11.192 106.122 11.5939 105.841 12.0159C105.58 12.4379 105.249 12.7493 104.847 12.9503C104.626 12.7092 104.214 12.4881 103.612 12.2872C103.01 12.0661 102.337 11.8953 101.594 11.7748C100.851 11.6341 100.148 11.5638 99.4853 11.5638C97.8788 11.5638 97.0756 11.9456 97.0756 12.7092C97.0756 13.0307 97.2262 13.2718 97.5274 13.4325C97.8286 13.5933 98.3306 13.7239 99.0335 13.8244L101.744 14.1861C105.259 14.6683 107.016 16.2357 107.016 18.8881C107.016 20.5559 106.373 21.8721 105.088 22.8366C103.803 23.781 102.026 24.2532 99.7564 24.2532C98.7323 24.2532 97.6981 24.1628 96.6538 23.982C95.6096 23.8011 94.6558 23.56 93.7922 23.2586C92.9287 22.9572 92.256 22.6256 91.7741 22.2639L93.491 19.1292C94.0734 19.5512 94.9168 19.9029 96.0213 20.1842C97.1258 20.4655 98.2604 20.6061 99.4251 20.6061C101.092 20.6061 101.925 20.2545 101.925 19.5512C101.925 19.2297 101.755 18.9785 101.413 18.7977C101.092 18.6168 100.54 18.4762 99.7564 18.3757L97.0454 18.014C93.8324 17.592 92.2259 16.0146 92.2259 13.2818Z" fill="#DAE0EA"/>
<path d="M116.107 24.2532C114.5 24.2532 113.085 23.9116 111.86 23.2284C110.655 22.5452 109.711 21.6008 109.028 20.3952C108.345 19.1694 108.004 17.7528 108.004 16.1452C108.004 14.5578 108.355 13.1613 109.058 11.9556C109.781 10.7299 110.765 9.77541 112.01 9.09221C113.255 8.38891 114.671 8.03726 116.257 8.03726C117.583 8.03726 118.768 8.26835 119.812 8.73051C120.856 9.19268 121.679 9.82564 122.282 10.6294C122.884 11.4332 123.186 12.3475 123.186 13.3723C123.186 15.0401 122.523 16.2558 121.197 17.0193C119.892 17.7829 117.774 18.1647 114.842 18.1647C114.46 18.1647 114.139 18.1647 113.878 18.1647C113.617 18.1446 113.376 18.1245 113.155 18.1044C113.275 18.7273 113.697 19.2297 114.42 19.6115C115.143 19.9933 116.057 20.1842 117.161 20.1842C117.563 20.1842 118.025 20.144 118.547 20.0636C119.069 19.9631 119.561 19.8426 120.023 19.7019C120.505 19.5412 120.856 19.3905 121.077 19.2498L122.764 22.6256C122.302 22.927 121.689 23.2083 120.926 23.4696C120.183 23.7107 119.39 23.9016 118.547 24.0422C117.703 24.1829 116.89 24.2532 116.107 24.2532ZM116.227 11.7748C115.304 11.7748 114.52 12.0862 113.878 12.7092C113.255 13.312 112.944 14.0856 112.944 15.03C113.105 15.0501 113.265 15.0602 113.426 15.0602C113.607 15.0602 113.767 15.0602 113.908 15.0602C115.555 15.0602 116.729 14.9195 117.432 14.6382C118.155 14.3368 118.517 13.9048 118.517 13.3421C118.517 12.88 118.306 12.5082 117.884 12.2269C117.462 11.9255 116.91 11.7748 116.227 11.7748Z" fill="#DAE0EA"/>
</svg>
