<svg width="15" height="15" viewBox="0 0 15 15" fill="none" xmlns="http://www.w3.org/2000/svg">
<path d="M0.756958 7.31751C0.756958 8.17905 0.926651 9.03216 1.25635 9.82812C1.58605 10.6241 2.06929 11.3473 2.6785 11.9565C3.2877 12.5657 4.01093 13.049 4.80689 13.3787C5.60285 13.7084 6.45596 13.8781 7.31751 13.8781C8.17905 13.8781 9.03216 13.7084 9.82812 13.3787C10.6241 13.049 11.3473 12.5657 11.9565 11.9565C12.5657 11.3473 13.049 10.6241 13.3787 9.82812C13.7084 9.03216 13.8781 8.17905 13.8781 7.31751C13.8781 5.57754 13.1869 3.90884 11.9565 2.6785C10.7262 1.44816 9.05747 0.756958 7.31751 0.756958C5.57754 0.756958 3.90884 1.44816 2.6785 2.6785C1.44816 3.90884 0.756958 5.57754 0.756958 7.31751Z" stroke="#98A8C1" stroke-width="1.51397" stroke-linecap="round" stroke-linejoin="round"/>
<path d="M7.3175 3.66833V7.31308L9.50435 9.49993" stroke="#98A8C1" stroke-width="1.51397" stroke-linecap="round" stroke-linejoin="round"/>
</svg>
