<svg width="15" height="16" viewBox="0 0 15 16" fill="none" xmlns="http://www.w3.org/2000/svg">
<path d="M3.75132 10.4095C5.33013 10.4095 6.62188 9.09625 6.62188 7.50309C6.62188 6.67063 6.21283 5.88123 5.39472 5.21383C4.57661 4.54642 3.95944 3.55608 3.75132 2.5155C3.54321 3.55608 2.93322 4.5536 2.10793 5.21383C1.28265 5.87405 0.880768 6.67781 0.880768 7.50309C0.880768 9.09625 2.17252 10.4095 3.75132 10.4095Z" stroke="#98A8C1" stroke-width="1.76151" stroke-linecap="round" stroke-linejoin="round"/>
<path d="M7.74045 3.44989C8.23361 2.66108 8.58346 1.79132 8.77385 0.880737C9.13267 2.67484 10.2091 4.39717 11.6444 5.54539C13.0797 6.69361 13.7973 8.05713 13.7973 9.49241C13.8014 10.4844 13.5109 11.4553 12.9626 12.2819C12.4142 13.1086 11.6328 13.7539 10.7173 14.1359C9.80183 14.5179 8.79353 14.6195 7.82023 14.4278C6.84694 14.2361 5.95248 13.7597 5.25024 13.0591" stroke="#98A8C1" stroke-width="1.76151" stroke-linecap="round" stroke-linejoin="round"/>
</svg>
