<svg width="13" height="13" viewBox="0 0 13 13" fill="none" xmlns="http://www.w3.org/2000/svg">
<path d="M0.692307 11.7685L11.7692 11.7685" stroke="#0166F4" stroke-width="1.38462" stroke-linecap="round" stroke-linejoin="round"/>
<path d="M0.692307 0.692322L11.7692 0.692322" stroke="#0166F4" stroke-width="1.38462" stroke-linecap="round" stroke-linejoin="round"/>
<path d="M3.92383 8.53802L8.53644 8.53802C8.9654 8.53802 9.17983 8.53802 9.35817 8.50255C10.0905 8.35688 10.663 7.78442 10.8087 7.05206C10.8441 6.87372 10.8441 6.65929 10.8441 6.23033C10.8441 5.80138 10.8441 5.58695 10.8087 5.40861C10.663 4.67624 10.0905 4.10375 9.35817 3.95809C9.17983 3.92264 8.9654 3.92264 8.53644 3.92264L3.92383 3.92264C3.49491 3.92264 3.28046 3.92264 3.10212 3.95809C2.36977 4.10375 1.79728 4.67624 1.65161 5.40861C1.61613 5.58695 1.61613 5.80138 1.61613 6.23033C1.61613 6.65929 1.61613 6.87372 1.65161 7.05206C1.79728 7.78442 2.36977 8.35688 3.10212 8.50255C3.28046 8.53802 3.49491 8.53802 3.92383 8.53802Z" stroke="#0166F4" stroke-width="1.38462" stroke-linecap="round" stroke-linejoin="round"/>
</svg>
