<svg width="17" height="17" viewBox="0 0 17 17" fill="none" xmlns="http://www.w3.org/2000/svg">
<g clip-path="url(#clip0_1_2834)">
<path d="M15.9791 8.49347C15.9791 10.0629 15.5137 11.597 14.6418 12.9019C13.7698 14.2069 12.5305 15.2239 11.0806 15.8244C9.6306 16.425 8.03511 16.582 6.49587 16.2758C4.95662 15.9695 3.54277 15.2137 2.43309 14.1039C1.32342 12.9941 0.567778 11.5801 0.261723 10.0409C-0.0443329 8.50159 0.112947 6.90612 0.713672 5.45623C1.3144 4.00634 2.33159 2.76715 3.6366 1.89537C4.94162 1.0236 6.47584 0.558396 8.04525 0.558594C9.08723 0.558594 10.119 0.763843 11.0816 1.16262C12.0443 1.5614 12.919 2.14589 13.6557 2.88273C14.3924 3.61956 14.9768 4.4943 15.3755 5.457C15.7741 6.41969 15.9793 7.45149 15.9791 8.49347ZM10.9338 5.8004C10.9373 5.41159 10.8612 5.02618 10.7103 4.66785C10.4223 3.97115 9.8729 3.41493 9.17981 3.11836C8.82696 2.96522 8.44593 2.88772 8.06129 2.89085C7.67239 2.88717 7.287 2.96466 6.92974 3.11836C6.23218 3.41383 5.67738 3.96972 5.38326 4.66785C5.23006 5.02491 5.15259 5.40987 5.15575 5.7984V5.81844C5.16305 6.02395 5.24983 6.21861 5.3978 6.36142C5.54577 6.50422 5.74339 6.58403 5.94903 6.58403C6.15467 6.58403 6.35229 6.50422 6.50026 6.36142C6.64824 6.21861 6.73501 6.02395 6.74232 5.81844V5.7984C6.73962 5.62525 6.77343 5.45347 6.84154 5.29426C6.90781 5.13321 7.00523 4.98682 7.1282 4.8635C7.25118 4.74019 7.39729 4.64236 7.55816 4.57564C7.71707 4.50781 7.88853 4.47433 8.06129 4.47742C8.2283 4.47481 8.39396 4.5076 8.54738 4.57364C8.7043 4.63976 8.84665 4.73614 8.96633 4.85728C9.08746 4.98 9.18317 5.12544 9.24796 5.28524C9.31623 5.44792 9.35002 5.623 9.34719 5.7994C9.35059 5.9513 9.33374 6.10297 9.29707 6.25041C9.2662 6.3671 9.2218 6.47979 9.16477 6.58617C9.10151 6.69889 9.02803 6.80558 8.94528 6.90489C8.819 7.05523 8.69472 7.19855 8.57946 7.32985C8.44415 7.47217 8.31887 7.61048 8.20461 7.74278C8.03394 7.94141 7.88258 8.15586 7.75259 8.38322C7.6024 8.64855 7.48719 8.93221 7.40982 9.22712C7.32705 9.55299 7.28663 9.88816 7.28955 10.2244V10.2594C7.29686 10.465 7.38363 10.6596 7.53161 10.8024C7.67958 10.9452 7.87719 11.025 8.08284 11.025C8.28848 11.025 8.4861 10.9452 8.63407 10.8024C8.78204 10.6596 8.86882 10.465 8.87612 10.2594V10.2244C8.87346 10.0252 8.89636 9.82642 8.94428 9.63303C8.98654 9.47094 9.04954 9.31497 9.1317 9.16899C9.21117 9.03013 9.3038 8.89923 9.40832 8.77811C9.50655 8.66285 9.61779 8.54057 9.73807 8.41429L9.75611 8.39424C9.8854 8.24992 10.0207 8.09256 10.16 7.92719C10.305 7.75353 10.4338 7.567 10.5449 7.36994C10.6662 7.15097 10.7604 6.91807 10.8255 6.67637C10.901 6.39026 10.9374 6.09527 10.9338 5.7994V5.8004ZM9.06756 13.1159C9.0684 12.9841 9.04275 12.8534 8.99213 12.7317C8.94152 12.61 8.86696 12.4996 8.77289 12.4073C8.67982 12.3175 8.57113 12.2455 8.45217 12.1948L8.44816 12.1938C8.32724 12.1417 8.19697 12.1148 8.0653 12.1146C7.92863 12.1144 7.79332 12.1417 7.6674 12.1948C7.54624 12.2447 7.43544 12.3168 7.34067 12.4073C7.19938 12.5485 7.1034 12.7286 7.06502 12.9246C7.02663 13.1207 7.04758 13.3237 7.12518 13.5078C7.17644 13.6274 7.2499 13.7362 7.34167 13.8285C7.53461 14.0184 7.79459 14.1246 8.0653 14.1241C8.1969 14.1243 8.32716 14.0977 8.44816 14.046L8.45317 14.044C8.69407 13.9415 8.88589 13.7497 8.98838 13.5088C9.04184 13.3847 9.06913 13.251 9.06856 13.1159H9.06756Z" fill="#0166F4"/>
</g>
<defs>
<clipPath id="clip0_1_2834">
<rect width="17" height="17" fill="white"/>
</clipPath>
</defs>
</svg>
