<svg width="15" height="18" viewBox="0 0 15 18" fill="none" xmlns="http://www.w3.org/2000/svg">
<path d="M11.8391 0.85437H2.68516C2.1996 0.85437 1.73394 1.04829 1.3906 1.39347C1.04726 1.73865 0.85437 2.20681 0.85437 2.69497V16.6265C0.854396 16.707 0.875469 16.7862 0.915482 16.856C0.955494 16.9258 1.01304 16.9839 1.08237 17.0243C1.1517 17.0648 1.23037 17.0862 1.31052 17.0865C1.39067 17.0867 1.46949 17.0658 1.53909 17.0259L6.35406 14.2604C6.63063 14.1015 6.94363 14.018 7.26214 14.018C7.58064 14.018 7.89364 14.1015 8.17021 14.2604L12.9852 17.0268C13.0549 17.0668 13.1338 17.0877 13.214 17.0874C13.2942 17.0871 13.3729 17.0656 13.4423 17.025C13.5117 16.9845 13.5692 16.9263 13.6091 16.8563C13.6491 16.7864 13.67 16.7071 13.6699 16.6265V2.69497C13.6699 2.20681 13.477 1.73865 13.1337 1.39347C12.7903 1.04829 12.3247 0.85437 11.8391 0.85437Z" stroke="#0166F4" stroke-width="1.70874" stroke-linecap="round" stroke-linejoin="round"/>
</svg>
