<svg width="18" height="18" viewBox="0 0 18 18" fill="none" xmlns="http://www.w3.org/2000/svg">
<path d="M7.6084 0.796875C7.65405 0.805518 7.69889 0.81846 7.74219 0.835938C7.82873 0.870879 7.90805 0.921888 7.97461 0.987305C8.0411 1.05265 8.09345 1.13099 8.12988 1.2168C8.16628 1.30263 8.18574 1.39505 8.18652 1.48828C8.18727 1.58151 8.16974 1.67432 8.13477 1.76074C8.09978 1.84716 8.04781 1.92573 7.98242 1.99219C7.917 2.05866 7.83881 2.11206 7.75293 2.14844C7.6673 2.18464 7.57539 2.20331 7.48242 2.2041C6.2037 2.21457 5.27417 2.25671 4.56055 2.39648C3.86613 2.53246 3.42729 2.75244 3.0918 3.08789C2.69805 3.48164 2.4613 4.02072 2.33496 4.96094C2.20658 5.9205 2.2041 7.18611 2.2041 8.96777C2.2041 10.7511 2.20655 12.016 2.33496 12.9756C2.4455 13.7976 2.64116 14.3134 2.95215 14.6934L3.0918 14.8486C3.48469 15.2422 4.02453 15.4791 4.96387 15.6055C5.92348 15.7339 7.18996 15.7354 8.97266 15.7354C10.7543 15.7354 12.02 15.7339 12.9795 15.6055C13.9196 15.4791 14.4587 15.2415 14.8525 14.8477C15.1878 14.513 15.407 14.0742 15.543 13.3799C15.6821 12.6654 15.7241 11.736 15.7354 10.458C15.7369 10.2697 15.813 10.0892 15.9473 9.95703C16.0815 9.82501 16.2629 9.75246 16.4512 9.75391C16.6395 9.75541 16.82 9.83157 16.9521 9.96582C17.0841 10.1 17.1578 10.2815 17.1562 10.4697C17.145 11.7436 17.1055 12.7941 16.9365 13.6533C16.7652 14.5325 16.4494 15.2606 15.8564 15.8535C15.1557 16.555 14.2656 16.8655 13.1689 17.0127C12.1011 17.1564 10.7368 17.1562 9.01465 17.1562H8.92871C7.20667 17.1563 5.84219 17.1564 4.77441 17.0127V17.0117C3.67796 16.8644 2.78919 16.5539 2.08789 15.8535C1.38638 15.152 1.07573 14.2619 0.927734 13.166C0.784051 12.0975 0.78418 10.7329 0.78418 9.01074V8.9248C0.78418 7.20301 0.784097 5.83918 0.927734 4.77148C1.07499 3.67468 1.38633 2.78476 2.08789 2.08398C2.68 1.49117 3.40827 1.17518 4.28711 1.00391L4.61816 0.946289C5.41182 0.825224 6.35539 0.793337 7.46973 0.78418L7.6084 0.796875ZM12.708 0.78418C12.8962 0.784217 13.0768 0.859224 13.21 0.992188L16.9473 4.73047C17.0803 4.86363 17.1553 5.04422 17.1553 5.23242C17.1552 5.42053 17.0802 5.60127 16.9473 5.73438L13.21 9.47168L13.209 9.4707C13.1447 9.53872 13.0689 9.59467 12.9834 9.63281C12.8963 9.67163 12.8014 9.69265 12.7061 9.69434C12.6108 9.69597 12.5161 9.67825 12.4277 9.64258C12.3394 9.60686 12.2588 9.55374 12.1914 9.48633C12.124 9.41891 12.0709 9.3384 12.0352 9.25C11.9995 9.16165 11.9817 9.06694 11.9834 8.97168C11.9851 8.87646 12.0062 8.78232 12.0449 8.69531C12.0831 8.60971 12.138 8.53212 12.2061 8.46777L14.7324 5.94238H10.4648C9.35777 5.94248 8.71007 6.4819 8.4873 6.70605H8.48633L8.2002 6.99219C7.97611 7.21428 7.4376 7.86303 7.4375 8.96973V11.2129C7.43746 11.4012 7.36261 11.5817 7.22949 11.7148C7.09637 11.848 6.9158 11.9228 6.72754 11.9229C6.53928 11.9229 6.35875 11.8479 6.22559 11.7148C6.09243 11.5817 6.01664 11.4012 6.0166 11.2129V8.96973C6.0167 7.35906 6.81175 6.36954 7.19824 5.98535L7.48047 5.70312L7.65234 5.54102C8.12112 5.13004 9.05537 4.52157 10.4648 4.52148H14.7314L12.2061 1.99609C12.0731 1.86293 11.998 1.68234 11.998 1.49414C11.9981 1.306 12.0731 1.12531 12.2061 0.992188C12.3392 0.859243 12.5198 0.78418 12.708 0.78418Z" fill="#0166F4" stroke="#0166F4" stroke-width="0.299029"/>
</svg>
